<?xml version="1.0" encoding="UTF-8"?>
<svg width="600" height="400" viewBox="0 0 600 400" fill="none" xmlns="http://www.w3.org/2000/svg">
    <rect width="600" height="400" fill="#F8F9FA"/>
    <rect x="100" y="100" width="400" height="250" rx="10" fill="#E9ECEF"/>
    <rect x="120" y="120" width="360" height="40" rx="5" fill="#4A6FA5"/>
    <rect x="120" y="180" width="120" height="15" rx="3" fill="#DEE2E6"/>
    <rect x="120" y="210" width="200" height="10" rx="3" fill="#E9ECEF"/>
    <rect x="120" y="230" width="180" height="10" rx="3" fill="#E9ECEF"/>
    <rect x="120" y="260" width="100" height="15" rx="3" fill="#DEE2E6"/>
    <rect x="120" y="290" width="200" height="10" rx="3" fill="#E9ECEF"/>
    <rect x="120" y="310" width="180" height="10" rx="3" fill="#E9ECEF"/>
    <rect x="360" y="180" width="100" height="150" rx="5" fill="#4A6FA5" fill-opacity="0.1"/>
    <path d="M400 220L440 250L400 280V220Z" fill="#4A6FA5"/>
    <circle cx="200" cy="140" r="10" fill="#FF7E5F"/>
    <circle cx="230" cy="140" r="10" fill="#FFD166"/>
    <circle cx="260" cy="140" r="10" fill="#06D6A0"/>
</svg>
