<?xml version="1.0" encoding="UTF-8"?>
<svg width="200" height="50" viewBox="0 0 200 50" fill="none" xmlns="http://www.w3.org/2000/svg">
    <!-- Book Icon -->
    <path d="M20 10H40V40H20C18.8954 40 18 39.1046 18 38V12C18 10.8954 18.8954 10 20 10Z" fill="#4A6FA5"/>
    <path d="M40 10H20C18.8954 10 18 10.8954 18 12V38C18 39.1046 18.8954 40 20 40H40V10Z" fill="#3A5A80"/>
    <path d="M25 15H35V20H25V15Z" fill="white"/>
    <path d="M25 25H35V30H25V25Z" fill="white"/>
    
    <!-- StudyHub Text -->
    <path d="M60 15H65V30H60V15Z" fill="#2D3748"/>
    <path d="M60 15H70V20H60V15Z" fill="#2D3748"/>
    <path d="M60 25H70V30H60V25Z" fill="#2D3748"/>
    
    <path d="M80 15H95V20H85V30H80V15Z" fill="#2D3748"/>
    <path d="M105 15V30H100V20H95V30H90V15H105Z" fill="#2D3748"/>
    <path d="M115 15H125C128.314 15 131 17.6863 131 21V24C131 27.3137 128.314 30 125 30H115V15ZM125 25C126.105 25 127 24.1046 127 23V22C127 20.8954 126.105 20 125 20H120V25H125Z" fill="#2D3748"/>
    <path d="M140 30V15H145V25H150V30H140Z" fill="#2D3748"/>
    <path d="M160 15H175V20H165V25H175V30H160V15Z" fill="#2D3748"/>
    <path d="M180 15H195V20H185V25H195V30H180V15Z" fill="#2D3748"/>
    
    <!-- Tagline -->
    <text x="60" y="45" font-family="Arial" font-size="10" fill="#6B7280">Study Smarter, Together</text>
</svg>
